<svg width="1600" height="900" viewBox="0 0 1600 900" fill="none" xmlns="http://www.w3.org/2000/svg">
  <defs>
    <linearGradient id="bg" x1="200" y1="40" x2="1400" y2="860" gradientUnits="userSpaceOnUse">
      <stop stop-color="#16284C"/>
      <stop offset="0.5" stop-color="#0C1730"/>
      <stop offset="1" stop-color="#070C18"/>
    </linearGradient>
    <radialGradient id="glow1" cx="0" cy="0" r="1" gradientUnits="userSpaceOnUse" gradientTransform="translate(1180 180) rotate(140) scale(420 620)">
      <stop stop-color="#7AA2FF" stop-opacity="0.20"/>
      <stop offset="1" stop-color="#7AA2FF" stop-opacity="0"/>
    </radialGradient>
    <radialGradient id="glow2" cx="0" cy="0" r="1" gradientUnits="userSpaceOnUse" gradientTransform="translate(460 700) rotate(-20) scale(520 320)">
      <stop stop-color="#FF7A90" stop-opacity="0.18"/>
      <stop offset="1" stop-color="#FF7A90" stop-opacity="0"/>
    </radialGradient>
    <filter id="soft" x="-100" y="-100" width="1800" height="1100" filterUnits="userSpaceOnUse" color-interpolation-filters="sRGB">
      <feGaussianBlur stdDeviation="18"/>
    </filter>
    <linearGradient id="gold" x1="270" y1="588" x2="1360" y2="588" gradientUnits="userSpaceOnUse">
      <stop stop-color="#FFCC66"/>
      <stop offset="1" stop-color="#FFE2A0"/>
    </linearGradient>
    <linearGradient id="red" x1="270" y1="520" x2="1360" y2="520" gradientUnits="userSpaceOnUse">
      <stop stop-color="#FF7A90"/>
      <stop offset="1" stop-color="#FFB0BC"/>
    </linearGradient>
    <linearGradient id="green" x1="270" y1="638" x2="1360" y2="638" gradientUnits="userSpaceOnUse">
      <stop stop-color="#5DD39E"/>
      <stop offset="1" stop-color="#A4F3CE"/>
    </linearGradient>
    <linearGradient id="blue" x1="270" y1="684" x2="1360" y2="684" gradientUnits="userSpaceOnUse">
      <stop stop-color="#7AA2FF"/>
      <stop offset="1" stop-color="#B5CCFF"/>
    </linearGradient>
  </defs>

  <rect width="1600" height="900" rx="28" fill="url(#bg)"/>
  <rect width="1600" height="900" rx="28" fill="url(#glow1)"/>
  <rect width="1600" height="900" rx="28" fill="url(#glow2)"/>

  <g opacity="0.32">
    <path d="M250 744H1360" stroke="#2C426B"/>
    <path d="M250 664H1360" stroke="#23385B"/>
    <path d="M250 584H1360" stroke="#23385B"/>
    <path d="M250 504H1360" stroke="#23385B"/>
    <path d="M250 424H1360" stroke="#23385B"/>
    <path d="M250 344H1360" stroke="#23385B"/>
    <path d="M250 264H1360" stroke="#23385B"/>
    <path d="M250 184H1360" stroke="#2C426B"/>
    <path d="M250 744V184" stroke="#2C426B"/>
    <path d="M472 744V184" stroke="#23385B"/>
    <path d="M694 744V184" stroke="#23385B"/>
    <path d="M916 744V184" stroke="#23385B"/>
    <path d="M1138 744V184" stroke="#23385B"/>
    <path d="M1360 744V184" stroke="#2C426B"/>
  </g>

  <g opacity="0.18">
    <path d="M330 742L470 632L610 640L750 534L890 486L1030 412L1170 422L1310 326" stroke="#7AA2FF" stroke-width="2"/>
    <path d="M330 742L470 610L610 558L750 544L890 452L1030 448L1170 374L1310 372" stroke="#5DD39E" stroke-width="2"/>
    <path d="M330 742L470 560L610 444L750 374L890 318L1030 270L1170 238L1310 214" stroke="#FF7A90" stroke-width="2"/>
  </g>

  <g filter="url(#soft)">
    <path d="M286 610C344 610 394 566 452 566C510 566 568 632 626 632C684 632 742 498 800 498C858 498 916 588 974 588C1032 588 1090 410 1148 410C1206 410 1264 480 1322 480" stroke="url(#gold)" stroke-width="10" stroke-linecap="round"/>
    <path d="M286 574C344 574 394 468 452 468C510 468 568 526 626 526C684 526 742 316 800 316C858 316 916 392 974 392C1032 392 1090 252 1148 252C1206 252 1264 302 1322 302" stroke="url(#red)" stroke-width="11" stroke-linecap="round"/>
    <path d="M286 652C344 652 394 618 452 618C510 618 568 572 626 572C684 572 742 540 800 540C858 540 916 514 974 514C1032 514 1090 496 1148 496C1206 496 1264 482 1322 482" stroke="url(#green)" stroke-width="10" stroke-linecap="round"/>
    <path d="M286 700C344 700 394 676 452 676C510 676 568 658 626 658C684 658 742 628 800 628C858 628 916 584 974 584C1032 584 1090 518 1148 518C1206 518 1264 438 1322 438" stroke="url(#blue)" stroke-width="10" stroke-linecap="round"/>
  </g>

  <g>
    <path d="M286 610C344 610 394 566 452 566C510 566 568 632 626 632C684 632 742 498 800 498C858 498 916 588 974 588C1032 588 1090 410 1148 410C1206 410 1264 480 1322 480" stroke="url(#gold)" stroke-width="4" stroke-linecap="round"/>
    <path d="M286 574C344 574 394 468 452 468C510 468 568 526 626 526C684 526 742 316 800 316C858 316 916 392 974 392C1032 392 1090 252 1148 252C1206 252 1264 302 1322 302" stroke="url(#red)" stroke-width="5" stroke-linecap="round"/>
    <path d="M286 652C344 652 394 618 452 618C510 618 568 572 626 572C684 572 742 540 800 540C858 540 916 514 974 514C1032 514 1090 496 1148 496C1206 496 1264 482 1322 482" stroke="url(#green)" stroke-width="4" stroke-linecap="round"/>
    <path d="M286 700C344 700 394 676 452 676C510 676 568 658 626 658C684 658 742 628 800 628C858 628 916 584 974 584C1032 584 1090 518 1148 518C1206 518 1264 438 1322 438" stroke="url(#blue)" stroke-width="4" stroke-linecap="round"/>
  </g>

  <g>
    <rect x="106" y="92" width="452" height="170" rx="22" fill="#0C1830" fill-opacity="0.90" stroke="#22385F"/>
    <text x="144" y="150" fill="#EDF3FF" font-family="Inter, Arial, sans-serif" font-size="58" font-weight="700">ACP-255</text>
    <text x="144" y="198" fill="#BCC8E8" font-family="Inter, Arial, sans-serif" font-size="30" font-weight="500">four fee curves</text>
    <text x="144" y="232" fill="#85A5EA" font-family="Inter, Arial, sans-serif" font-size="21" font-weight="500">ACP-77 and three variants</text>
  </g>

  <g>
    <rect x="1124" y="92" width="306" height="194" rx="20" fill="#0C1830" fill-opacity="0.88" stroke="#22385F"/>
    <circle cx="1160" cy="132" r="7" fill="#FFCC66"/>
    <text x="1180" y="138" fill="#E2EBFF" font-family="Inter, Arial, sans-serif" font-size="22">ACP-77</text>
    <circle cx="1160" cy="172" r="7" fill="#FF7A90"/>
    <text x="1180" y="178" fill="#E2EBFF" font-family="Inter, Arial, sans-serif" font-size="22">Gaussian 255</text>
    <circle cx="1160" cy="212" r="7" fill="#5DD39E"/>
    <text x="1180" y="218" fill="#E2EBFF" font-family="Inter, Arial, sans-serif" font-size="22">Monotonic 255</text>
    <circle cx="1160" cy="252" r="7" fill="#7AA2FF"/>
    <text x="1180" y="258" fill="#E2EBFF" font-family="Inter, Arial, sans-serif" font-size="22">Hybrid 255</text>
  </g>

  <g opacity="0.9">
    <text x="245" y="792" fill="#97ABDA" font-family="Inter, Arial, sans-serif" font-size="18">0</text>
    <text x="462" y="792" fill="#97ABDA" font-family="Inter, Arial, sans-serif" font-size="18">5k</text>
    <text x="684" y="792" fill="#97ABDA" font-family="Inter, Arial, sans-serif" font-size="18">10k</text>
    <text x="906" y="792" fill="#97ABDA" font-family="Inter, Arial, sans-serif" font-size="18">15k</text>
    <text x="1128" y="792" fill="#97ABDA" font-family="Inter, Arial, sans-serif" font-size="18">20k</text>
    <text x="1080" y="836" fill="#B4C4EA" font-family="Inter, Arial, sans-serif" font-size="22" font-weight="500">total network validators</text>
  </g>
</svg>
